<svg width="48" height="48" viewBox="0 0 48 48" fill="none" xmlns="http://www.w3.org/2000/svg">
<path d="M34.5607 18.5607C35.1464 17.9749 35.1464 17.0251 34.5607 16.4394C33.9749 15.8536 33.0251 15.8536 32.4393 16.4394L20.5 28.3787L15.5607 23.4394C14.9749 22.8536 14.0251 22.8536 13.4393 23.4394C12.8536 24.0251 12.8536 24.9749 13.4393 25.5607L19.4393 31.5607C20.0251 32.1465 20.9749 32.1465 21.5607 31.5607L34.5607 18.5607Z" fill="#19AB4F"/>
<path fill-rule="evenodd" clip-rule="evenodd" d="M24 2.00002C11.8497 2.00002 2 11.8498 2 24C2 36.1503 11.8497 46 24 46C36.1503 46 46 36.1503 46 24C46 11.8498 36.1503 2.00002 24 2.00002ZM5 24C5 13.5066 13.5066 5.00002 24 5.00002C34.4934 5.00002 43 13.5066 43 24C43 34.4934 34.4934 43 24 43C13.5066 43 5 34.4934 5 24Z" fill="#19AB4F"/>
</svg>
